<?xml version="1.0" encoding="UTF-8"?>
<svg version="1.1" xmlns="http://www.w3.org/2000/svg" width="225" height="224">
<path d="M0 0 C74.25 0 148.5 0 225 0 C225 73.92 225 147.84 225 224 C150.75 224 76.5 224 0 224 C0 150.08 0 76.16 0 0 Z " fill="#FEFEFE" transform="translate(0,0)"/>
<path d="M0 0 C1.31097656 0.01353516 1.31097656 0.01353516 2.6484375 0.02734375 C3.30070312 0.03894531 3.95296875 0.05054687 4.625 0.0625 C3.625 2.0625 3.625 2.0625 0.3125 3.875 C-3.12734661 5.80018164 -5.35226626 7.58339796 -7.375 11.0625 C-8.20659006 15.4699273 -7.58732409 18.332881 -5.25 22.0625 C1.74637299 30.49737958 13.2312481 33.64796472 23.55810547 35.82128906 C25.25899459 36.18289208 26.94428686 36.61642393 28.625 37.0625 C28.955 37.7225 29.285 38.3825 29.625 39.0625 C7.54042853 37.46439837 -28.68675407 32.75074593 -45.375 16.0625 C-45.4375 13.6875 -45.4375 13.6875 -44.375 11.0625 C-35.17928127 4.5488659 -24.17177067 3.1321654 -13.29785156 1.37768555 C-11.59238854 1.09813339 -9.89145133 0.79127454 -8.19140625 0.48046875 C-5.41155561 0.06792503 -2.80708818 -0.03793362 0 0 Z " fill="#40B4AB" transform="translate(64.375,87.9375)"/>
<path d="M0 0 C0.9244844 2.98291971 1.01514872 4.98229586 0.328125 8.01953125 C0.16014404 8.7863623 -0.00783691 9.55319336 -0.1809082 10.34326172 C-0.3687085 11.15811035 -0.55650879 11.97295898 -0.75 12.8125 C-1.13520628 14.54012153 -1.51931026 16.26798919 -1.90234375 17.99609375 C-2.09296387 18.84929199 -2.28358398 19.70249023 -2.47998047 20.58154297 C-3.17866377 23.83091233 -3.73618783 27.10198183 -4.3125 30.375 C-6.23119878 40.19485726 -9.68289243 49.57952339 -13 59 C-13.66 59 -14.32 59 -15 59 C-15.061875 59.66 -15.12375 60.32 -15.1875 61 C-16.36125484 65.33386403 -18.78750912 69.78750912 -22 73 C-24.3125 73.4375 -24.3125 73.4375 -27 73 C-30.59260892 68.51799277 -32.17868006 64.07071151 -33.625 58.5625 C-33.83664795 57.77552734 -34.0482959 56.98855469 -34.26635742 56.17773438 C-37.00657086 45.60453617 -38.46340869 34.94159402 -38 24 C-37.34 24 -36.68 24 -36 24 C-35.608125 24.886875 -35.21625 25.77375 -34.8125 26.6875 C-32.92826464 30.13110255 -30.87209675 32.35464773 -28 35 C-27.67 35.33 -27.34 35.66 -27 36 C-23.24442133 36.43669519 -21.30634662 36.16255127 -17.9375 34.375 C-8.21356492 26.51309504 -4.40921665 14.91099031 -1.54296875 3.01171875 C-1 1 -1 1 0 0 Z " fill="#556166" transform="translate(127,130)"/>
<path d="M0 0 C0.77900679 1.47487846 1.54767059 2.95521999 2.3125 4.4375 C2.74175781 5.26121094 3.17101562 6.08492187 3.61328125 6.93359375 C7.01911433 14.46480211 8.65385002 21.82117391 9.6875 30 C9.81705078 30.93328125 9.94660156 31.8665625 10.08007812 32.828125 C10.84230182 38.60328019 11.12531073 44.17603443 11 50 C9 49 9 49 7.1875 45.75 C5.20611031 42.21700735 3.25966944 39.50160678 0 37 C-3.5 36.5 -3.5 36.5 -7 37 C-7.928125 37.0825 -8.85625 37.165 -9.8125 37.25 C-12.13040472 37.79474188 -12.13040472 37.79474188 -13.1875 39.8125 C-13.5896875 40.8953125 -13.5896875 40.8953125 -14 42 C-14.66666667 43.33333333 -15.33333333 44.66666667 -16 46 C-16.66 46 -17.32 46 -18 46 C-18.17958252 46.53874756 -18.35916504 47.07749512 -18.54418945 47.63256836 C-21.36279297 56.08837891 -24.18139648 64.54418945 -27 73 C-27.33 73 -27.66 73 -28 73 C-27.10388252 62.78426075 -25.25181543 52.72879207 -22 43 C-21.69590862 41.35998583 -21.42484683 39.71349501 -21.1875 38.0625 C-19.466863 28.06641838 -15.65647054 18.42984508 -12 9 C-11.34 9 -10.68 9 -10 9 C-9.731875 8.071875 -9.46375 7.14375 -9.1875 6.1875 C-7.15024128 0.71906871 -5.71248161 -0.16774008 0 0 Z " fill="#F4B42B" transform="translate(124,19)"/>
<path d="M0 0 C21.49674041 2.2434293 52.92089839 5.92089839 69 22 C69.3125 24.375 69.3125 24.375 69 27 C60.09852228 36.64326753 39.3253389 37.1721137 27 38 C24.66128003 38.0549455 22.33977244 38.04018103 20 38 C22.5494516 35.96043872 25.09731275 33.92531812 27.6875 31.9375 C30.87238411 29.26908358 31.93297521 27.73727265 32.3125 23.5625 C31.98483788 19.82715183 31.41470106 18.7165387 29 16 C29 15.34 29 14.68 29 14 C28.16275391 13.59394531 28.16275391 13.59394531 27.30859375 13.1796875 C25.73529335 12.37573366 24.18564207 11.52416482 22.66015625 10.6328125 C16.4625791 7.03542185 10.47557448 4.71580115 3.5546875 2.859375 C1 2 1 2 0 0 Z " fill="#E56A63" transform="translate(135,96)"/>
<path d="M0 0 C4.20518023 3.88752273 7.20564806 8.0408518 10.25 12.875 C10.72671143 13.62458984 11.20342285 14.37417969 11.69458008 15.14648438 C13.13797554 17.42590949 14.56979828 19.71228007 16 22 C16.41362793 22.65387695 16.82725586 23.30775391 17.25341797 23.98144531 C34.16035074 50.77232347 34.16035074 50.77232347 34.125 61.625 C34.12886719 62.81996094 34.12886719 62.81996094 34.1328125 64.0390625 C34 66 34 66 33 67 C19.60128803 67.22709681 8.00748953 56.85397912 -2 49 C-3.35931641 47.98292969 -3.35931641 47.98292969 -4.74609375 46.9453125 C-5.57238281 46.32398438 -6.39867187 45.70265625 -7.25 45.0625 C-8.34054688 44.24458984 -8.34054688 44.24458984 -9.453125 43.41015625 C-9.96359375 42.94480469 -10.4740625 42.47945312 -11 42 C-11 41.34 -11 40.68 -11 40 C-9.93458984 40.23783203 -9.93458984 40.23783203 -8.84765625 40.48046875 C-6.00371533 40.99932217 -3.3260191 41.23616918 -0.4375 41.3125 C0.49191406 41.34988281 1.42132813 41.38726562 2.37890625 41.42578125 C5.10482725 41.17996949 5.10482725 41.17996949 7.3125 39.36328125 C10.56180142 34.81275495 9.50193876 29.3478167 9 24 C7.73744872 16.91510479 4.55271555 10.78566245 1.20703125 4.46875 C0 2 0 2 0 0 Z " fill="#A0A9AC" transform="translate(138,117)"/>
<path d="M0 0 C2 2 2 2 2 4.875 C-0.8176445 19.95404255 -13.85255632 34.13794761 -24 45 C-25.1046676 41.68599719 -24.85190036 40.03811042 -24.375 36.625 C-23.99134186 32.95353733 -23.85964 31.33419047 -25.3125 27.875 C-27.45390891 25.49565676 -28.42464025 25.0523835 -31.6171875 24.76171875 C-43.62907888 24.48806655 -52.59294039 27.80418026 -62.8203125 33.92578125 C-63.53960937 34.28027344 -64.25890625 34.63476562 -65 35 C-65.66 34.67 -66.32 34.34 -67 34 C-17.67309849 -1.51052124 -17.67309849 -1.51052124 0 0 Z " fill="#E277A0" transform="translate(183,51)"/>
<path d="M0 0 C5.75006204 0.09387856 10.36320068 3.52715927 15.125 6.4375 C16.16527344 7.06011719 17.20554687 7.68273438 18.27734375 8.32421875 C23.96070384 11.81323131 23.96070384 11.81323131 26.125 13.4375 C26.125 14.0975 26.125 14.7575 26.125 15.4375 C26.846875 15.685 27.56875 15.9325 28.3125 16.1875 C31.40106582 17.56019592 33.63511418 19.16103296 36.125 21.4375 C36.125 22.0975 36.125 22.7575 36.125 23.4375 C37.3315625 23.870625 37.3315625 23.870625 38.5625 24.3125 C41.125 25.4375 41.125 25.4375 42.125 27.4375 C41.43664062 27.27765625 40.74828125 27.1178125 40.0390625 26.953125 C36.81975566 26.38348894 33.76856706 26.23258368 30.5 26.1875 C29.37335938 26.16171875 28.24671875 26.1359375 27.0859375 26.109375 C24.20383464 26.23508235 24.20383464 26.23508235 22.25390625 27.48046875 C20.5000589 30.5208754 20.637916 33.58578712 20.6875 37 C20.69507324 37.7209082 20.70264648 38.44181641 20.71044922 39.18457031 C20.8979863 45.29252994 22.26973459 50.02025928 25.125 55.4375 C26.23150429 57.60297379 27.33560818 59.76967554 28.4375 61.9375 C28.96988281 62.9378125 29.50226563 63.938125 30.05078125 64.96875 C30.40527344 65.7834375 30.75976562 66.598125 31.125 67.4375 C30.795 68.0975 30.465 68.7575 30.125 69.4375 C28.7742287 67.41134304 27.42453915 65.38452745 26.078125 63.35546875 C24.70688943 61.30684281 23.32005319 59.26861447 21.921875 57.23828125 C16.89569847 49.90107641 12.24302224 42.40004322 7.8125 34.6875 C7.32120605 33.83704102 6.82991211 32.98658203 6.32373047 32.11035156 C0.62605747 22.07021151 -4.25842338 13.13191295 -3.875 1.4375 C-2.875 0.4375 -2.875 0.4375 0 0 Z " fill="#A4C912" transform="translate(55.875,37.5625)"/>
<path d="M0 0 C1.00759489 3.26891472 0.98704263 6.03627734 0.8125 9.4375 C0.8125 12.94179031 0.9608826 14.90500059 2.3125 18.1875 C6.68065203 21.133463 10.90001075 20.6187987 16 20 C22.68400239 18.66115548 28.6652586 15.89842331 34.75 12.890625 C35.4925 12.59671875 36.235 12.3028125 37 12 C37.66 12.33 38.32 12.66 39 13 C-6.04038005 46.93824228 -6.04038005 46.93824228 -23 45 C-23.66 44.34 -24.32 43.68 -25 43 C-25 26.98532865 -10.45660524 11.04077313 0 0 Z " fill="#6377A8" transform="translate(64,127)"/>
<path d="M0 0 C0.33 0 0.66 0 1 0 C1.02578125 0.89460938 1.0515625 1.78921875 1.078125 2.7109375 C1.64473346 14.78999961 5.3086952 22.97711253 10.92578125 33.53125 C11.28027344 34.3459375 11.63476562 35.160625 12 36 C11.67 36.66 11.34 37.32 11 38 C6.33333333 31 1.66666667 24 -3 17 C-2.34 16.67 -1.68 16.34 -1 16 C-0.68758545 13.28553021 -0.48663408 10.66090639 -0.375 7.9375 C-0.33632812 7.17888672 -0.29765625 6.42027344 -0.2578125 5.63867188 C-0.16326438 3.75952805 -0.08053244 1.87979664 0 0 Z " fill="#ADC153" transform="translate(75,69)"/>
<path d="M0 0 C10.61854327 1.1594961 20.69731087 3.21109861 31 6 C28 8 28 8 25.73828125 7.7578125 C24.93777344 7.54898438 24.13726562 7.34015625 23.3125 7.125 C22.50425781 6.92132813 21.69601563 6.71765625 20.86328125 6.5078125 C20.24839844 6.34023437 19.63351563 6.17265625 19 6 C19 6.66 19 7.32 19 8 C12.54646385 5.94235079 6.2638737 3.57616518 0 1 C0 0.67 0 0.34 0 0 Z " fill="#D1817F" transform="translate(135,96)"/>
<path d="M0 0 C0.66 0.33 1.32 0.66 2 1 C0.68 2.65 -0.64 4.3 -2 6 C-1.34 6.33 -0.68 6.66 0 7 C-0.68964844 7.23074219 -1.37929687 7.46148437 -2.08984375 7.69921875 C-7.84892012 9.69791055 -13.02942075 11.94219254 -18.22265625 15.14453125 C-18.80917969 15.42683594 -19.39570312 15.70914063 -20 16 C-20.66 15.67 -21.32 15.34 -22 15 C-14.75097661 9.86794804 -7.40740177 4.90008537 0 0 Z " fill="#D0839E" transform="translate(138,70)"/>
<path d="M0 0 C0.33 0.66 0.66 1.32 1 2 C2.65 1.34 4.3 0.68 6 0 C6.66 1.98 7.32 3.96 8 6 C7.01 6 6.02 6 5 6 C5.57452746 9.93075644 5.57452746 9.93075644 8 13 C7.625 15.125 7.625 15.125 7 17 C6.67 15.68 6.34 14.36 6 13 C5.34 13 4.68 13 4 13 C4 12.01 4 11.02 4 10 C3.01 9.67 2.02 9.34 1 9 C0.67 6.03 0.34 3.06 0 0 Z " fill="#A3CB04" transform="translate(55,48)"/>
<path d="M0 0 C1.01498547 3.17459631 0.94466465 5.30877671 0.22265625 8.546875 C0.03896484 9.39121094 -0.14472656 10.23554688 -0.33398438 11.10546875 C-0.53314453 11.97816406 -0.73230469 12.85085937 -0.9375 13.75 C-1.13279297 14.63816406 -1.32808594 15.52632812 -1.52929688 16.44140625 C-2.01161712 18.62949322 -2.50209032 20.8154173 -3 23 C-4.32 22.01 -5.64 21.02 -7 20 C-6.21021997 17.60353007 -5.41824215 15.20782392 -4.625 12.8125 C-4.40328125 12.13896484 -4.1815625 11.46542969 -3.953125 10.77148438 C-2.74532068 7.13030959 -1.47219028 3.54288783 0 0 Z " fill="#7B8185" transform="translate(127,130)"/>
<path d="M0 0 C0.33 1.32 0.66 2.64 1 4 C1.66 4 2.32 4 3 4 C1 10.66666667 -1 17.33333333 -3 24 C-3.33 24 -3.66 24 -4 24 C-3.28621973 15.86290495 -1.67226118 7.98268072 0 0 Z " fill="#D2B986" transform="translate(100,68)"/>
<path d="M0 0 C1.81883009 2.3832946 3 3.95818337 3 7 C0 6 0 6 -1.1875 3.9375 C-1.5896875 2.9784375 -1.5896875 2.9784375 -2 2 C-3.96756452 2.03122943 -3.96756452 2.03122943 -6 3 C-6.70381157 4.98723268 -7.3711811 6.98777953 -8 9 C-8.99 9.33 -9.98 9.66 -11 10 C-11 10.99 -11 11.98 -11 13 C-11.66 13 -12.32 13 -13 13 C-12.67 11.68 -12.34 10.36 -12 9 C-11.34 9 -10.68 9 -10 9 C-9.731875 8.071875 -9.46375 7.14375 -9.1875 6.1875 C-7.35895816 1.27930875 -5.52997771 -1.10599554 0 0 Z " fill="#E0B659" transform="translate(124,19)"/>
<path d="M0 0 C0.33 0 0.66 0 1 0 C2.23107719 7.72720775 3.2700558 15.1683819 3 23 C-0.24732932 21.37633534 -0.70155136 18.24612161 -2 15 C-1.34 15 -0.68 15 0 15 C0 10.05 0 5.1 0 0 Z " fill="#D7BA7D" transform="translate(132,46)"/>
<path d="M0 0 C0.68449219 0.13083984 1.36898437 0.26167969 2.07421875 0.39648438 C3.81613192 0.75349034 5.53632994 1.21310597 7.25 1.6875 C7.58 2.3475 7.91 3.0075 8.25 3.6875 C1.15593106 3.10273944 -5.76563899 2.05516005 -12.75 0.6875 C-12.75 0.3575 -12.75 0.0275 -12.75 -0.3125 C-8.2662403 -1.60722906 -4.46602575 -0.95085905 0 0 Z " fill="#9BB2B2" transform="translate(85.75,123.3125)"/>
<path d="M0 0 C1.04005702 3.38018531 1.08004482 6.4780279 1 10 C3.31 10.33 5.62 10.66 8 11 C4.77626323 13.14915785 3.73296326 13.38286803 0 13 C-0.66 12.34 -1.32 11.68 -2 11 C-1.68603757 7.04407344 -1.25172182 3.75516546 0 0 Z " fill="#848DA4" transform="translate(41,159)"/>
<path d="M0 0 C2.67438936 2.38335287 4.15158012 4.87036148 5.75 8.0625 C6.19859375 8.94035156 6.6471875 9.81820312 7.109375 10.72265625 C7.40328125 11.47417969 7.6971875 12.22570312 8 13 C7.67 13.66 7.34 14.32 7 15 C6.03874097 13.58531689 5.08111675 12.1681636 4.125 10.75 C3.32449219 9.56664063 3.32449219 9.56664063 2.5078125 8.359375 C1.17053197 6.26684277 -0.06579335 4.30109848 -1 2 C-0.67 1.34 -0.34 0.68 0 0 Z " fill="#AEB97D" transform="translate(79,92)"/>
<path d="M0 0 C7.425 0.99 7.425 0.99 15 2 C14.01 2.33 13.02 2.66 12 3 C12 3.66 12 4.32 12 5 C10.18504338 4.55149342 8.37306866 4.09090429 6.5625 3.625 C5.55316406 3.36976562 4.54382813 3.11453125 3.50390625 2.8515625 C1 2 1 2 0 0 Z " fill="#C89C9B" transform="translate(135,96)"/>
<path d="M0 0 C1.13732426 3.40401948 0.83989957 5.77456664 0.0625 9.25 C-0.13214844 10.14203125 -0.32679687 11.0340625 -0.52734375 11.953125 C-0.68332031 12.62859375 -0.83929688 13.3040625 -1 14 C-1.66 14 -2.32 14 -3 14 C-3.33 14.99 -3.66 15.98 -4 17 C-3.35729017 11.0870696 -1.80996216 5.65755469 0 0 Z " fill="#DCBA71" transform="translate(107,41)"/>
<path d="M0 0 C0.66 0.33 1.32 0.66 2 1 C-5.0547046 7.03938731 -5.0547046 7.03938731 -9 6.875 C-9.66 6.58625 -10.32 6.2975 -11 6 C-8.88613536 3.88613536 -7.20732397 3.02991678 -4.5 1.8125 C-3.7059375 1.44769531 -2.911875 1.08289063 -2.09375 0.70703125 C-1.4028125 0.47371094 -0.711875 0.24039063 0 0 Z " fill="#828AA0" transform="translate(101,139)"/>
<path d="M0 0 C0.103125 0.639375 0.20625 1.27875 0.3125 1.9375 C0.539375 2.618125 0.76625 3.29875 1 4 C1.99 4.33 2.98 4.66 4 5 C2.625 7.5 2.625 7.5 1 10 C0.34 10 -0.32 10 -1 10 C-1.125 2.25 -1.125 2.25 0 0 Z " fill="#E6B23E" transform="translate(102,62)"/>
<path d="M0 0 C0.96661363 3.12180401 0.98988909 5.52083795 0.5625 8.75 C0.46066406 9.54921875 0.35882813 10.3484375 0.25390625 11.171875 C0.12822266 12.07679688 0.12822266 12.07679688 0 13 C-0.33 13 -0.66 13 -1 13 C-1.33 10.69 -1.66 8.38 -2 6 C-2.99 6 -3.98 6 -5 6 C-3.35 4.02 -1.7 2.04 0 0 Z " fill="#8992A8" transform="translate(64,127)"/>
<path d="M0 0 C4.00972202 3.67557852 6.45335415 7.18966896 9 12 C7.68 12 6.36 12 5 12 C4.16180842 10.37750059 3.3295884 8.75191503 2.5 7.125 C2.0359375 6.22007813 1.571875 5.31515625 1.09375 4.3828125 C0 2 0 2 0 0 Z " fill="#ABADAE" transform="translate(138,117)"/>
<path d="M0 0 C0.66 0 1.32 0 2 0 C2 0.66 2 1.32 2 2 C3.2065625 2.433125 3.2065625 2.433125 4.4375 2.875 C7 4 7 4 8 6 C7.360625 5.855625 6.72125 5.71125 6.0625 5.5625 C2.06155212 4.82763202 -1.95504896 4.41418889 -6 4 C-6 3.67 -6 3.34 -6 3 C-4.02 2.67 -2.04 2.34 0 2 C0 1.34 0 0.68 0 0 Z " fill="#ACBD5D" transform="translate(90,59)"/>
<path d="M0 0 C0.66 0 1.32 0 2 0 C1.45712148 3.80014965 -0.11464643 5.53896313 -3 8 C-3.99 8.33 -4.98 8.66 -6 9 C-6.33 8.34 -6.66 7.68 -7 7 C-6.21625 6.5875 -5.4325 6.175 -4.625 5.75 C-1.94108344 3.9607223 -1.11901051 2.95011861 0 0 Z " fill="#9CA3A5" transform="translate(148,152)"/>
<path d="M0 0 C0.99 0.33 1.98 0.66 3 1 C0.12050853 3.23960447 -2.76742026 5.29864224 -6 7 C-6.66 6.67 -7.32 6.34 -8 6 C-6.7391988 4.96680187 -5.46596742 3.94875621 -4.1875 2.9375 C-3.47980469 2.36902344 -2.77210937 1.80054687 -2.04296875 1.21484375 C-1.36878906 0.81394531 -0.69460937 0.41304688 0 0 Z " fill="#C5ACB4" transform="translate(124,79)"/>
<path d="M0 0 C3.465 1.485 3.465 1.485 7 3 C4.42786866 4.61949011 3.32330841 5.04408751 0.25 4.625 C-0.4925 4.41875 -1.235 4.2125 -2 4 C-1.34 2.68 -0.68 1.36 0 0 Z " fill="#A5C523" transform="translate(71,45)"/>
<path d="M0 0 C0.66 0.33 1.32 0.66 2 1 C0.68 2.65 -0.64 4.3 -2 6 C-1.34 6.33 -0.68 6.66 0 7 C-1.32 7 -2.64 7 -4 7 C-4 6.34 -4 5.68 -4 5 C-4.66 4.67 -5.32 4.34 -6 4 C-4.02 2.68 -2.04 1.36 0 0 Z " fill="#D38DA6" transform="translate(138,70)"/>
<path d="M0 0 C0.66 0.33 1.32 0.66 2 1 C1.34 1.66 0.68 2.32 0 3 C0.33 3.66 0.66 4.32 1 5 C-1.31 5 -3.62 5 -6 5 C-5.195625 4.360625 -4.39125 3.72125 -3.5625 3.0625 C-1.7249496 1.59396498 -1.7249496 1.59396498 0 0 Z " fill="#C98988" transform="translate(161,129)"/>
<path d="M0 0 C2.4375 0.375 2.4375 0.375 5 1 C5.33 1.66 5.66 2.32 6 3 C3.03 3 0.06 3 -3 3 C-2.01 2.67 -1.02 2.34 0 2 C0 1.34 0 0.68 0 0 Z " fill="#62ABA6" transform="translate(72,120)"/>
<path d="M0 0 C2.64 0.33 5.28 0.66 8 1 C7.67 2.32 7.34 3.64 7 5 C3.535 3.02 3.535 3.02 0 1 C0 0.67 0 0.34 0 0 Z " fill="#D48480" transform="translate(154,104)"/>
</svg>
